<svg id="Layer_1" data-name="Layer 1" xmlns="http://www.w3.org/2000/svg" xmlns:xlink="http://www.w3.org/1999/xlink" viewBox="0 0 1024 1024">
  <defs>
    <linearGradient id="linear-gradient" x1="76.67" y1="920.21" x2="884.71" y2="162.5" gradientUnits="userSpaceOnUse">
      <stop offset="0.25" stop-color="#009ffd"/>
      <stop offset="0.67" stop-color="#2a2a72"/>
      <stop offset="0.84" stop-color="#262749"/>
      <stop offset="0.99" stop-color="#232528"/>
    </linearGradient>
  </defs>
  <g>
    <rect x="262.99" y="260.37" width="498.09" height="498.09" rx="36.32" transform="translate(-210.15 521.02) rotate(-45.77)" style="fill: #fff"/>
    <path d="M835.93,452.65,571.34,188.06a83.74,83.74,0,0,0-118.41,0l-94.6,94.61-62.46,62.46-107.8,107.8a83.72,83.72,0,0,0,0,118.41L452.66,835.93a83.72,83.72,0,0,0,118.41,0l96.7-96.7L730.1,676.9,835.93,571.07A83.74,83.74,0,0,0,835.93,452.65Zm-285,361.73-4.79,4.79a40.79,40.79,0,0,1-57.67,0L212.55,543.3a39.71,39.71,0,0,1,0-56.79l10.27-10.27L324.9,374.15l37-37A40.8,40.8,0,0,1,402.68,327l78,78a40.79,40.79,0,0,1,0,57.69l-4.77,4.77a40.78,40.78,0,0,1-57.68,0l-30.89-30.88-70.69,70.69a24.68,24.68,0,0,0,.62,15.81L550.88,756.71A40.77,40.77,0,0,1,550.88,814.38Zm270-299.21A40.64,40.64,0,0,1,809,543l-7.2,7.2-99.09,99.1L664.5,687.51a40.79,40.79,0,0,1-37.56,11l-90.19-90.2a40.78,40.78,0,0,1,0-57.68l4.77-4.78a40.79,40.79,0,0,1,57.69,0l41,41,49.3-49.31,14.88-14.88a24.92,24.92,0,0,0,0-16.81L689.52,491,478.28,279.77a40.81,40.81,0,0,1,0-57.69l4.78-4.77a40.79,40.79,0,0,1,57.69,0l261,261,7.2,7.21a40.59,40.59,0,0,1,11.94,27.86Q820.93,514.29,820.91,515.17Z" style="stroke: #fff;stroke-miterlimit: 10;stroke-width: 4px;fill: url(#linear-gradient)"/>
  </g>
</svg>
