<svg width="358" height="501" viewBox="0 0 358 501" fill="none" xmlns="http://www.w3.org/2000/svg">
<rect x="0.5" y="0.5" width="357" height="500" rx="41.5" fill="url(#paint0_linear_1_39)" stroke="url(#paint1_linear_1_39)"/>
<g clip-path="url(#clip0_1_39)">
<path d="M179.652 180C151.444 180 127.086 196.638 116.112 220.511C115.896 220.986 116.004 221.545 116.384 221.905L126.266 231.344C126.906 231.954 127.961 231.707 128.261 230.872C135.809 210.086 156.001 195.169 179.652 195.169C203.303 195.169 223.051 209.758 230.795 230.194C231.107 231.016 232.15 231.256 232.786 230.649L242.62 221.254C243 220.89 243.112 220.323 242.884 219.848C231.766 196.331 207.6 180 179.652 180Z" fill="white"/>
<path d="M221.14 231.088C210.167 217.604 195.431 210.182 179.652 210.182C163.873 210.182 149.141 217.604 138.167 231.088C136.125 233.599 134.258 236.263 132.583 239.062C132.291 239.549 132.379 240.18 132.79 240.571L142.581 249.918C143.169 250.477 144.128 250.325 144.508 249.607C152.112 235.229 165.028 225.75 179.652 225.75C194.276 225.75 206.829 234.961 214.472 248.992C214.856 249.699 215.807 249.842 216.391 249.287L226.15 239.968C226.565 239.573 226.653 238.934 226.353 238.447C224.77 235.871 223.031 233.412 221.136 231.084L221.14 231.088Z" fill="white"/>
<path d="M147.038 319.912C146.906 319.876 146.331 319.293 146.247 319.11C145.915 307.546 145.975 295.847 146.059 284.24C146.171 268.537 146.431 255.903 160.699 246.221C168.99 240.595 179.036 239.229 188.847 241.437C188.995 241.469 190.51 242.2 191.437 242.503C213.257 249.591 211.47 270.673 211.878 289.814C212.082 299.441 211.83 309.128 211.682 318.75C211.594 319.07 211.49 319.357 211.194 319.545C210.219 320.156 201.879 320.144 200.864 319.537C200.556 319.353 200.076 318.782 199.976 318.431C199.333 304.36 200.536 289.898 199.908 275.871C199.381 264.113 197.334 254.901 183.73 253.783C170.525 252.701 160.027 256.882 158.412 271.112C156.653 286.628 158.828 302.511 157.628 317.736C157.568 318.503 157.393 319.177 157.209 319.908H147.038V319.912Z" fill="white"/>
</g>
<defs>
<linearGradient id="paint0_linear_1_39" x1="179" y1="0" x2="179" y2="501" gradientUnits="userSpaceOnUse">
<stop stop-color="#5EB4FF"/>
<stop offset="0.144231" stop-color="#2563EB"/>
<stop offset="0.884615" stop-color="#2563EB" stop-opacity="0.03"/>
</linearGradient>
<linearGradient id="paint1_linear_1_39" x1="179" y1="0" x2="179" y2="501" gradientUnits="userSpaceOnUse">
<stop stop-color="#FFF6BE"/>
<stop offset="1" stop-color="#E0DC91" stop-opacity="0"/>
</linearGradient>
<clipPath id="clip0_1_39">
<rect width="127" height="140" fill="white" transform="translate(116 180)"/>
</clipPath>
</defs>
</svg>
