<svg width="822" height="6440" viewBox="0 0 822 6440" fill="none" xmlns="http://www.w3.org/2000/svg">
<rect x="0.5" y="5939.5" width="357" height="500" rx="41.5" fill="url(#paint0_linear_1_65)" stroke="url(#paint1_linear_1_65)"/>
<path d="M203.222 6183.22C203.319 6182.62 204.623 6180.04 205.496 6179.67C216.399 6177.34 212.085 6195.99 213.001 6202.48C214.277 6211.5 227.759 6213.43 232.031 6205.11C235.236 6198.86 229.049 6190.42 228.217 6183.08C227.121 6173.42 228.799 6156.53 242.24 6159.3C252.449 6161.41 252.491 6176.17 251.215 6184.29C249.939 6192.4 236.234 6210.04 255.002 6210.28C268.706 6210.45 264.864 6200.15 268.262 6191.66C274.462 6176.1 298.764 6175.27 305.186 6190.37C307.877 6196.69 305.228 6202.72 310.152 6207.5C313.162 6210.43 326.27 6211.94 321.845 6218.34C317.989 6223.9 304.368 6212.97 302.176 6213.18C300.137 6213.36 296.947 6216.76 294.353 6217.77C286.156 6220.95 276.599 6219.2 271.577 6211.58C261.521 6222.44 247.414 6222.07 238.426 6210.22C230.214 6221.14 216.898 6222.74 208.049 6211.61C199.338 6222.61 185.398 6221.5 176.284 6211.61C165.923 6224.18 147.599 6221.54 141.801 6206.02C140.081 6201.42 140.317 6195.94 138.139 6191.73C135.657 6186.93 126.127 6180.85 121.772 6186.03C140.9 6229.53 88.6204 6228.57 107.929 6185.37H94.1133C97.262 6194.01 99.9945 6212.94 89.633 6217.45C75.6512 6223.53 71.8228 6206.46 73.5012 6195.8C74.2641 6190.93 78.1063 6188.45 78.9247 6183.98C56.01 6181.8 66.2051 6207.3 54.0126 6214.98C49.5184 6217.81 35.1898 6222 36.0359 6213.66C36.5076 6209 43.9285 6210 47.4933 6208.46C54.6507 6205.38 52.0429 6198.91 53.6381 6192.51C56.7868 6179.9 68.4383 6174.4 80.6863 6176C92.9343 6177.61 90.7427 6175.84 100.341 6175.57C105.779 6175.42 109.094 6178.21 112.881 6178.38C120.565 6178.74 123.977 6172.55 135.559 6177.74C153.924 6185.96 142.217 6209.79 159.709 6210.32C176.451 6210.83 172.248 6193.68 173.039 6182.09L178.92 6179.75C184.704 6187.67 175.619 6207.59 188.754 6210.18C193.04 6211.03 203.222 6208.1 203.222 6204C203.222 6197.98 202.348 6188.72 203.222 6183.29V6183.22ZM240.493 6190.8C241.561 6183.24 247.234 6173.44 239.813 6167.36C234.348 6172.47 236.165 6180.62 238.162 6186.95C238.62 6188.39 238.509 6191.12 240.493 6190.8ZM282.938 6188.34C273.602 6190.46 271.73 6207.32 282.938 6209.85C304.049 6214.59 302.953 6183.8 282.938 6188.34ZM87.2195 6190.8C80.5753 6194.27 79.1327 6205.56 85.1666 6210.11C90.5762 6204.44 87.9546 6197.5 87.2195 6190.8ZM116.21 6192.19C112.853 6191.76 114.018 6192.21 113.311 6194.11C111.355 6199.33 111.022 6206.1 115.544 6210.14C119.331 6204.65 117.194 6198.1 116.21 6192.19Z" fill="white"/>
<defs>
<linearGradient id="paint0_linear_1_65" x1="179" y1="5939" x2="179" y2="6440" gradientUnits="userSpaceOnUse">
<stop stop-color="#5EB4FF"/>
<stop offset="0.144231" stop-color="#2563EB"/>
<stop offset="0.884615" stop-color="#2563EB" stop-opacity="0.03"/>
</linearGradient>
<linearGradient id="paint1_linear_1_65" x1="179" y1="5939" x2="179" y2="6440" gradientUnits="userSpaceOnUse">
<stop stop-color="#FFF6BE"/>
<stop offset="1" stop-color="#E0DC91" stop-opacity="0"/>
</linearGradient>
</defs>
</svg>
