<svg width="1422" height="6440" viewBox="0 0 1422 6440" fill="none" xmlns="http://www.w3.org/2000/svg">
<rect x="0.5" y="5939.5" width="357" height="500" rx="41.5" fill="url(#paint0_linear_1_91)" stroke="url(#paint1_linear_1_91)"/>
<path d="M329.977 6300.45L97.8582 6299.69L357.028 6076.42V6154.55L329.977 6300.45Z" fill="white"/>
<path d="M68.0737 6253.83C54.7264 6250.23 41.4236 6243.21 28.1877 6239.03L53.1666 6217.54C53.694 6217.24 54.0876 6217.08 54.3179 6217.1C55.3206 6217.19 61.3443 6221.1 62.8298 6222.01C74.8179 6229.3 88.7743 6240.69 98.497 6250.83C99.4848 6251.87 104.632 6257.7 103.659 6258.63C91.9161 6257.57 79.4899 6256.9 68.0737 6253.83Z" fill="white"/>
<path d="M59.2125 6212.36L79.4748 6194.94C92.1165 6206.76 104.758 6220.14 113.151 6235.43C113.686 6236.41 116.249 6240.81 115.513 6241.59C103.904 6237.77 92.0794 6233.93 81.4134 6227.89C76.6078 6225.17 64.0478 6217.47 60.4157 6214.05C59.881 6213.55 58.9377 6213.41 59.2125 6212.36Z" fill="white"/>
<path d="M84.4065 6190.8L89.2418 6186.52L104.208 6173.64C117.051 6189.1 126.32 6206.15 130.346 6226.02C129.202 6226.31 128.608 6225.71 127.717 6225.31C121.143 6222.36 105.137 6211.57 99.5661 6206.77C94.0029 6201.98 89.7246 6195.82 84.4065 6190.8Z" fill="white"/>
<path d="M127.004 6195.64C120.193 6187.71 115.343 6178.17 108.918 6169.95L118.18 6161.62L131.624 6150.06C140.596 6170.7 145.58 6191.77 148.135 6214.16L145.506 6213.46C139.727 6207.16 132.574 6202.13 127.004 6195.64Z" fill="white"/>
<path d="M148.239 6179.59C143.181 6169.39 140.314 6157.01 136.31 6146.31L142.601 6140.62L160.064 6125.59L161.475 6125.21C162.485 6138.48 167.201 6152.51 168.137 6165.62C168.457 6170.09 168.152 6204.64 166.659 6206.01C165.285 6206.33 165.226 6205.54 164.565 6204.78C160.249 6199.78 151.232 6185.63 148.239 6179.59Z" fill="white"/>
<path d="M173.389 6166.3C169.734 6151.68 168.917 6135.39 166.667 6120.43C166.711 6120.18 166.786 6119.95 166.89 6119.72L197.61 6093.3C197.692 6093.29 197.751 6093.3 197.788 6093.35C198.39 6096.52 197.127 6099.63 197.023 6102.58C196.08 6129 198.969 6163.26 191.49 6188.22C190.977 6189.94 188.875 6198.25 187.055 6197.85C184.285 6197.24 174.451 6170.53 173.389 6166.3Z" fill="white"/>
<path d="M235.156 6061L212.45 6181.08L208.098 6204.11L202.787 6300.45L0.75761 6300.2L0 6263.28L22.4164 6244L23.2334 6243.34C48.7545 6253.21 76.3478 6260.44 97.7169 6278.28C97.0187 6279.35 96.2982 6279.3 95.1767 6279.43C77.9819 6281.26 59.7398 6279.76 42.6044 6277.81C28.5812 6276.21 14.7066 6273.22 0.631342 6271.98V6277.91C4.15943 6278.04 7.78408 6278.33 11.2899 6278.74C36.4693 6281.71 57.7715 6284.32 81.8071 6292.72C84.9489 6293.82 95.6 6299.03 97.7466 6298.37L206.753 6204.17L207.11 6202.99C196.399 6165.65 204.228 6126.75 203.745 6088.54C204.273 6087.89 204.815 6087.25 205.379 6086.62L234.488 6061.57L235.156 6061Z" fill="white"/>
<path d="M197.788 6093.35C198.39 6096.52 197.127 6099.62 197.023 6102.58C196.08 6129 198.969 6163.26 191.49 6188.22C190.977 6189.94 188.875 6198.25 187.055 6197.85C184.278 6197.24 174.451 6170.53 173.389 6166.3C169.727 6151.68 168.91 6135.39 166.659 6120.44C166.949 6118.85 168.524 6117.75 169.616 6116.69C176.144 6110.35 185.132 6103.01 192.247 6097.08C192.923 6096.51 197.313 6092.8 197.781 6093.35L197.788 6093.35Z" fill="white"/>
<path d="M161.475 6125.21C162.485 6138.48 167.201 6152.51 168.137 6165.62C168.457 6170.08 168.152 6204.64 166.659 6206C165.285 6206.33 165.226 6205.53 164.565 6204.77C160.249 6199.77 151.232 6185.62 148.239 6179.58C143.181 6169.38 140.314 6157 136.31 6146.3L158.845 6125.92L161.475 6125.21Z" fill="white"/>
<path d="M103.659 6258.63C91.9157 6257.57 79.4894 6256.9 68.0733 6253.83C54.6814 6250.22 41.3415 6243.17 28.061 6238.99C31.3886 6236.16 51.9406 6216.88 54.3174 6217.1C55.3202 6217.19 61.3439 6221.1 62.8294 6222C74.8175 6229.29 88.7739 6240.69 98.4891 6250.83C99.4844 6251.86 104.624 6257.69 103.651 6258.62L103.659 6258.63Z" fill="white"/>
<path d="M148.135 6214.16L145.506 6213.46C139.735 6207.16 132.574 6202.13 127.004 6195.64C120.193 6187.71 115.35 6178.17 108.918 6169.95L131.468 6149.68C140.544 6170.44 145.573 6191.63 148.135 6214.16Z" fill="white"/>
<path d="M115.513 6241.59C103.897 6237.77 92.0794 6233.94 81.406 6227.89C76.6004 6225.17 64.0404 6217.47 60.4083 6214.05C59.881 6213.55 58.9377 6213.41 59.2125 6212.36L79.4674 6194.94C92.1091 6206.76 104.758 6220.13 113.151 6235.43C113.686 6236.4 116.249 6240.81 115.513 6241.58V6241.59Z" fill="white"/>
<path d="M130.346 6226.02C129.209 6226.31 128.608 6225.71 127.717 6225.32C121.143 6222.36 105.137 6211.57 99.5661 6206.77C94.0029 6201.98 89.7246 6195.82 84.4065 6190.8L104.03 6173.43C116.961 6188.94 126.298 6206.06 130.338 6226.02H130.346Z" fill="white"/>
<defs>
<linearGradient id="paint0_linear_1_91" x1="179" y1="5939" x2="179" y2="6440" gradientUnits="userSpaceOnUse">
<stop stop-color="#5EB4FF"/>
<stop offset="0.144231" stop-color="#2563EB"/>
<stop offset="0.884615" stop-color="#2563EB" stop-opacity="0.03"/>
</linearGradient>
<linearGradient id="paint1_linear_1_91" x1="179" y1="5939" x2="179" y2="6440" gradientUnits="userSpaceOnUse">
<stop stop-color="#FFF6BE"/>
<stop offset="1" stop-color="#E0DC91" stop-opacity="0"/>
</linearGradient>
</defs>
</svg>
